Coordinates
version=1
nRows=5
nColumns=63
inDegrees=yes

Units are S.I. units (second, meters, Newtons, ...)
If the header above contains a line with 'inDegrees', this indicates whether rotational values are in degrees (yes) or radians (no).

endheader
time	pelvis_tilt	pelvis_list	pelvis_rotation	pelvis_tx	pelvis_ty	pelvis_tz	hip_flexion_r	hip_adduction_r	hip_rotation_r	knee_angle_r	knee_angle_r_beta	ankle_angle_r	subtalar_angle_r	mtp_angle_r	hip_flexion_l	hip_adduction_l	hip_rotation_l	knee_angle_l	knee_angle_l_beta	ankle_angle_l	subtalar_angle_l	mtp_angle_l	L5_S1_Flex_Ext	L5_S1_Lat_Bending	L5_S1_axial_rotation	L4_L5_Flex_Ext	L4_L5_Lat_Bending	L4_L5_axial_rotation	L3_L4_Flex_Ext	L3_L4_Lat_Bending	L3_L4_axial_rotation	L2_L3_Flex_Ext	L2_L3_Lat_Bending	L2_L3_axial_rotation	L1_L2_Flex_Ext	L1_L2_Lat_Bending	L1_L2_axial_rotation	L1_T12_Flex_Ext	L1_T12_Lat_Bending	L1_T12_axial_rotation	Abs_r3	Abs_r2	Abs_r1	Abs_t1	Abs_t2	neck_flexion	neck_bending	neck_rotation	arm_flex_r	arm_add_r	arm_rot_r	elbow_flex_r	pro_sup_r	wrist_flex_r	wrist_dev_r	arm_flex_l	arm_add_l	arm_rot_l	elbow_flex_l	pro_sup_l	wrist_flex_l	wrist_dev_l
      2.11864407	     -2.11389156	      1.59219381	     89.41940262	     -0.09025780	      0.82582491	      0.64370658	     -1.44844362	     -5.92611137	    -10.56878649	     18.19004689	      0.31747621	     32.67622744	      7.97734793	      0.00000000	     -4.60732868	      2.84607467	    -16.23947689	      8.95860311	      0.15635712	     34.41709909	     15.81818412	      0.00000000	     -0.49615123	     -0.53911313	     -4.62657351	     -0.92140246	     -0.71702046	     -4.91573436	     -0.81512686	     -1.31079966	     -4.91573436	     -0.56705125	     -1.31079966	     -4.04825182	     -0.46072604	     -1.09935949	     -3.75909098	     -0.28350082	     -0.83508624	     -3.46993013	     -3.54395865	     -6.09855553	    -25.73161390	      0.00000000	      0.00000000	      5.33092317	      5.92802293	     29.36589426	     70.37082651	     17.07354057	    169.72098951	      0.07729339	      1.03583763	    -69.76273904	    -23.86745672	    -40.15620498	    -61.97841306	    -79.16671213	    105.09364797	     88.49428331	     -9.74244849	     -8.77668007
      2.13559322	     -2.11550933	      1.50909259	     89.43088065	     -0.09029318	      0.82596273	      0.64434113	     -1.34642381	     -5.96715703	    -10.84572210	     18.18650868	      0.31741446	     32.74420620	      8.37579033	      0.00000000	     -4.38547162	      2.80048491	    -16.44783703	      9.17053265	      0.16005599	     34.53177597	     16.04524636	      0.00000000	     -0.48868215	     -0.52753460	     -4.67870946	     -0.90753162	     -0.70162102	     -4.97112880	     -0.80285590	     -1.28264763	     -4.97112880	     -0.55851483	     -1.28264763	     -4.09387078	     -0.45379024	     -1.07574856	     -3.80145144	     -0.27923298	     -0.81715110	     -3.50903210	     -3.49060773	     -5.96757691	    -26.02157840	      0.00000000	      0.00000000	      5.53789776	      6.07384549	     29.91398377	     70.45141087	     17.43961433	    169.51678109	      0.07763313	      1.03124960	    -69.75887139	    -23.87011945	    -44.31594715	    -64.15322181	    -84.92928279	    105.92027258	     88.61638020	     -9.61616166	     -5.27325233
      2.15254237	     -2.09902075	      1.39824576	     89.53700055	     -0.09048420	      0.82617595	      0.64486369	     -1.22091527	     -5.96095217	    -11.07292976	     18.21031391	      0.31782994	     32.69250412	      8.46478090	      0.00000000	     -4.16003394	      2.75283655	    -16.47221509	      9.30824521	      0.16245953	     34.53499101	     16.12858841	      0.00000000	     -0.48292506	     -0.51098466	     -4.77525998	     -0.89684013	     -0.67960959	     -5.07371373	     -0.79339758	     -1.24240809	     -5.07371373	     -0.55193505	     -1.24240809	     -4.17835248	     -0.44844421	     -1.04199991	     -3.87989873	     -0.27594338	     -0.79151523	     -3.58144498	     -3.44948540	     -5.78036062	    -26.55856343	      0.00000000	      0.00000000	      5.67589341	      6.17762122	     30.67982600	     70.49439325	     17.91669881	    169.42051467	      0.07824873	      1.02446204	    -69.75564993	    -23.85529647	    -47.99535471	    -65.90667058	    -90.46115822	    106.79455498	     88.74842041	     -8.69083041	     -0.33889256
      2.16949153	     -2.03358904	      1.27509543	     89.72964642	     -0.09099896	      0.82645862	      0.64508734	     -1.09374257	     -5.90439962	    -11.24502833	     18.27037052	      0.31887812	     32.58635737	      8.36706115	      0.00000000	     -3.98373884	      2.68317813	    -16.30177614	      9.34666580	      0.16313009	     34.43319113	     16.13173038	      0.00000000	     -0.48362911	     -0.48725096	     -4.90122290	     -0.89814761	     -0.64804377	     -5.20754933	     -0.79455426	     -1.18470198	     -5.20754933	     -0.55273970	     -1.18470198	     -4.28857004	     -0.44909799	     -0.99360215	     -3.98224361	     -0.27634567	     -0.75475173	     -3.67591717	     -3.45451434	     -5.51188028	    -27.25913140	      0.00000000	      0.00000000	      5.66715276	      6.27008135	     31.55771103	     70.51966313	     18.41135115	    169.50465504	      0.07900457	      1.01848256	    -69.75290844	    -23.84054602	    -50.51717537	    -67.58406093	    -95.12490593	    107.52032009	     88.84435968	     -6.29795340	      5.24881005
      2.18644068	     -1.94107533	      1.10639640	     90.05354873	     -0.09186318	      0.82674715	      0.64484336	     -0.97164756	     -5.79904207	    -11.38247890	     18.29925242	      0.31938221	     32.41119016	      8.01239194	      0.00000000	     -3.84064610	      2.61294689	    -15.92026463	      9.26773839	      0.16175255	     34.23862471	     16.07224261	      0.00000000	     -0.47807961	     -0.45441922	     -5.04949631	     -0.88784164	     -0.60437756	     -5.36508983	     -0.78543699	     -1.10487489	     -5.36508983	     -0.54639718	     -1.10487489	     -4.41830927	     -0.44394472	     -0.92665167	     -4.10271575	     -0.27317469	     -0.70389537	     -3.78712223	     -3.41487484	     -5.14048107	    -28.08378362	      0.00000000	      0.00000000	      5.44456779	      6.38234357	     32.58987609	     70.51164990	     18.82709806	    169.97369213	      0.07941177	      1.00275645	    -69.75261817	    -23.81567937	    -51.25932974	    -69.39284064	    -97.95110883	    107.82280790	     88.84591570	     -3.03786039	     10.16031533
